<svg width="213" height="213" viewBox="0 0 213 213" fill="none" xmlns="http://www.w3.org/2000/svg">
<path d="M179.559 100.979C176.182 84.2474 167.937 68.8936 155.864 56.8548C143.79 44.816 128.43 36.6318 111.721 33.3349C95.0124 30.038 77.7037 31.7763 61.9794 38.3302C46.2551 44.8842 32.8198 55.9602 23.3689 70.1606C13.918 84.3609 8.87509 101.049 8.87639 118.12C8.8777 135.19 13.9232 151.878 23.3763 166.077C32.8294 180.276 46.2664 191.349 61.9917 197.901C77.717 204.453 95.0259 206.188 111.734 202.889C122.877 200.688 133.476 196.303 142.922 189.983C152.368 183.664 160.476 175.536 166.778 166.066C173.081 156.596 177.455 145.97 179.648 134.801C181.842 123.631 181.811 112.137 179.559 100.979ZM76.5872 24.3282C95.0193 20.6804 114.117 22.594 131.464 29.827C148.811 37.06 163.628 49.2874 174.042 64.9627C184.456 80.6379 189.998 99.057 189.968 117.89C189.938 136.723 184.337 155.124 173.874 170.766C163.41 186.408 148.553 198.588 131.183 205.765C113.813 212.943 94.71 214.795 76.2896 211.088C57.8692 207.382 40.9592 198.282 27.6984 184.941C14.4376 171.6 5.42159 154.616 1.79085 136.138C-3.07592 111.369 2.06939 85.6767 16.0955 64.7097C30.1215 43.7428 51.8801 29.2177 76.5872 24.3282Z" fill="#D5D6D5"/>
<path d="M94.9844 43.8869V0.002147C111.726 -0.0498128 128.283 3.51406 143.539 10.4531C158.794 17.3922 172.392 27.5448 183.415 40.2255C194.438 52.9061 202.629 67.8195 207.434 83.9584C212.239 100.097 213.547 117.086 211.27 133.777L167.663 127.78C169.075 117.346 168.249 106.73 165.242 96.6444C162.235 86.559 157.117 77.2387 150.23 69.3109C143.344 61.3831 134.851 55.0317 125.321 50.6841C115.792 46.3365 105.447 44.0936 94.9844 44.1063" fill="#F4AF43"/>
<path d="M69.8203 130H47.3672V126.742L56.5312 117.438C58.2344 115.719 59.6641 114.188 60.8203 112.844C61.9922 111.5 62.8828 110.18 63.4922 108.883C64.1016 107.57 64.4062 106.133 64.4062 104.57C64.4062 102.633 63.8281 101.156 62.6719 100.141C61.5312 99.1094 60.0234 98.5938 58.1484 98.5938C56.5078 98.5938 55.0547 98.875 53.7891 99.4375C52.5234 100 51.2266 100.797 49.8984 101.828L47.8125 99.2031C48.7188 98.4375 49.7031 97.7578 50.7656 97.1641C51.8438 96.5703 52.9922 96.1016 54.2109 95.7578C55.4453 95.4141 56.7578 95.2422 58.1484 95.2422C60.2578 95.2422 62.0781 95.6094 63.6094 96.3438C65.1406 97.0781 66.3203 98.125 67.1484 99.4844C67.9922 100.844 68.4141 102.461 68.4141 104.336C68.4141 106.148 68.0547 107.836 67.3359 109.398C66.6172 110.945 65.6094 112.484 64.3125 114.016C63.0156 115.531 61.5 117.141 59.7656 118.844L52.3125 126.273V126.438H69.8203V130ZM97.4766 112.82C97.4766 115.602 97.2656 118.086 96.8438 120.273C96.4219 122.461 95.7578 124.312 94.8516 125.828C93.9453 127.344 92.7734 128.5 91.3359 129.297C89.8984 130.078 88.1719 130.469 86.1562 130.469C83.6094 130.469 81.5 129.773 79.8281 128.383C78.1719 126.992 76.9297 124.984 76.1016 122.359C75.2891 119.719 74.8828 116.539 74.8828 112.82C74.8828 109.164 75.25 106.023 75.9844 103.398C76.7344 100.758 77.9375 98.7344 79.5938 97.3281C81.25 95.9062 83.4375 95.1953 86.1562 95.1953C88.7344 95.1953 90.8594 95.8984 92.5312 97.3047C94.2031 98.6953 95.4453 100.711 96.2578 103.352C97.0703 105.977 97.4766 109.133 97.4766 112.82ZM78.7969 112.82C78.7969 116.008 79.0391 118.664 79.5234 120.789C80.0078 122.914 80.7891 124.508 81.8672 125.57C82.9609 126.617 84.3906 127.141 86.1562 127.141C87.9219 127.141 89.3438 126.617 90.4219 125.57C91.5156 124.523 92.3047 122.938 92.7891 120.812C93.2891 118.688 93.5391 116.023 93.5391 112.82C93.5391 109.68 93.2969 107.055 92.8125 104.945C92.3281 102.82 91.5469 101.227 90.4688 100.164C89.3906 99.0859 87.9531 98.5469 86.1562 98.5469C84.3594 98.5469 82.9219 99.0859 81.8438 100.164C80.7656 101.227 79.9844 102.82 79.5 104.945C79.0312 107.055 78.7969 109.68 78.7969 112.82ZM109.289 95.2422C111.633 95.2422 113.406 96.1797 114.609 98.0547C115.828 99.9141 116.438 102.547 116.438 105.953C116.438 109.359 115.852 112.016 114.68 113.922C113.508 115.812 111.711 116.758 109.289 116.758C107.039 116.758 105.312 115.812 104.109 113.922C102.922 112.016 102.328 109.359 102.328 105.953C102.328 102.547 102.898 99.9141 104.039 98.0547C105.18 96.1797 106.93 95.2422 109.289 95.2422ZM109.289 98.0312C108.023 98.0312 107.094 98.6953 106.5 100.023C105.906 101.336 105.609 103.312 105.609 105.953C105.609 108.594 105.906 110.586 106.5 111.93C107.094 113.273 108.023 113.945 109.289 113.945C110.602 113.945 111.578 113.273 112.219 111.93C112.859 110.586 113.18 108.594 113.18 105.953C113.18 103.328 112.859 101.352 112.219 100.023C111.594 98.6953 110.617 98.0312 109.289 98.0312ZM130.992 95.7344L111.984 130H108.562L127.57 95.7344H130.992ZM130.078 108.977C132.406 108.977 134.18 109.914 135.398 111.789C136.617 113.648 137.227 116.281 137.227 119.688C137.227 123.078 136.641 125.727 135.469 127.633C134.297 129.523 132.5 130.469 130.078 130.469C127.812 130.469 126.086 129.523 124.898 127.633C123.711 125.727 123.117 123.078 123.117 119.688C123.117 116.281 123.68 113.648 124.805 111.789C125.945 109.914 127.703 108.977 130.078 108.977ZM130.078 111.789C128.812 111.789 127.883 112.445 127.289 113.758C126.695 115.07 126.398 117.047 126.398 119.688C126.398 122.328 126.695 124.32 127.289 125.664C127.883 126.992 128.812 127.656 130.078 127.656C131.391 127.656 132.367 127 133.008 125.688C133.648 124.359 133.969 122.359 133.969 119.688C133.969 117.062 133.648 115.094 133.008 113.781C132.383 112.453 131.406 111.789 130.078 111.789Z" fill="#D5D6D5"/>
</svg>
