<svg width="211" height="212" viewBox="0 0 211 212" fill="none" xmlns="http://www.w3.org/2000/svg">
<path d="M173.622 71.6254C166.814 57.9109 156.117 46.5348 142.883 38.9347C129.649 31.3346 114.473 27.8518 99.2718 28.9264C84.0709 30.001 69.5276 35.5847 57.4804 44.972C45.4333 54.3593 36.4229 67.1287 31.5877 81.6663C26.7526 96.2039 26.3099 111.857 30.3157 126.648C34.3214 141.438 42.5958 154.702 54.093 164.764C65.5902 174.825 79.7943 181.231 94.9098 183.173C110.025 185.116 125.374 182.506 139.016 175.675C148.084 171.135 156.174 164.84 162.822 157.151C169.47 149.463 174.546 140.531 177.76 130.867C180.975 121.204 182.263 110.997 181.553 100.832C180.843 90.6667 178.148 80.742 173.622 71.6254ZM66.8815 29.8226C81.9097 22.2713 98.8265 19.3733 115.492 21.495C132.158 23.6168 147.823 30.6631 160.508 41.7426C173.192 52.822 182.325 67.437 186.752 83.7389C191.179 100.041 190.701 117.297 185.378 133.326C180.055 149.354 170.126 163.434 156.848 173.786C143.569 184.137 127.538 190.294 110.78 191.478C94.0233 192.662 77.2932 188.82 62.7067 180.438C48.1201 172.056 36.3324 159.511 28.8341 144.389C18.7839 124.119 17.1461 100.665 24.2808 79.1814C31.4155 57.6978 46.7386 39.9438 66.8815 29.8226Z" fill="#D5D6D5"/>
<path d="M179.963 32.0172L179.443 32.5408C169.819 22.6064 158.337 14.6869 145.66 9.23851C132.982 3.79014 119.359 0.920602 105.575 0.795166L105.249 40.0681C119.941 40.1918 134.163 45.2904 145.625 54.5425C157.087 63.7946 165.122 76.6615 168.433 91.0701C171.745 105.479 170.142 120.59 163.882 133.97C157.622 147.35 147.07 158.218 133.925 164.825L131.779 165.807L128.723 167.116C113.498 172.789 96.7194 172.553 81.6568 166.455C66.5942 160.358 54.3257 148.834 47.241 134.13C40.1563 119.426 38.7627 102.593 43.3316 86.9113C47.9004 71.2294 58.1047 57.8208 71.9567 49.2973L54.3999 13.8207C37.4533 23.3646 23.4735 37.4595 14.0196 54.5337H13.5644C2.86786 73.5645 -1.67894 95.4749 0.554724 117.225C2.78839 138.975 11.6919 159.485 26.0298 175.911C40.3677 192.337 59.4289 203.863 80.569 208.89C101.709 213.918 123.879 212.197 144.004 203.967L146.995 202.724L150.572 201.087C152.652 200.105 154.733 198.993 157.074 197.815C171.101 189.868 183.116 178.768 192.18 165.378C201.244 151.989 207.112 136.673 209.328 120.624C211.543 104.576 210.046 88.2296 204.952 72.8597C199.858 57.4898 191.306 43.5123 179.963 32.0172Z" fill="#E9552A"/>
<path d="M65.6875 83.2422C67.6719 83.2422 69.4297 83.5547 70.9609 84.1797C72.4922 84.8047 73.6875 85.7266 74.5469 86.9453C75.4219 88.1484 75.8594 89.6328 75.8594 91.3984C75.8594 92.7891 75.5547 94.0078 74.9453 95.0547C74.3516 96.0859 73.5469 96.9922 72.5312 97.7734C71.5156 98.5391 70.3906 99.2266 69.1562 99.8359C70.625 100.508 71.9453 101.266 73.1172 102.109C74.3047 102.953 75.2422 103.945 75.9297 105.086C76.6172 106.227 76.9609 107.578 76.9609 109.141C76.9609 111.062 76.4922 112.727 75.5547 114.133C74.6328 115.523 73.3359 116.594 71.6641 117.344C69.9922 118.094 68.0312 118.469 65.7812 118.469C63.3594 118.469 61.2969 118.109 59.5938 117.391C57.9062 116.656 56.6172 115.609 55.7266 114.25C54.8516 112.875 54.4141 111.227 54.4141 109.305C54.4141 107.727 54.75 106.359 55.4219 105.203C56.0938 104.031 56.9844 103.023 58.0938 102.18C59.2031 101.336 60.4141 100.625 61.7266 100.047C60.5859 99.4219 59.5391 98.7109 58.5859 97.9141C57.6484 97.1172 56.8984 96.1875 56.3359 95.125C55.7891 94.0469 55.5156 92.7969 55.5156 91.375C55.5156 89.6406 55.9531 88.1719 56.8281 86.9688C57.7188 85.75 58.9297 84.8281 60.4609 84.2031C62.0078 83.5625 63.75 83.2422 65.6875 83.2422ZM58.2344 109.328C58.2344 111.078 58.8516 112.523 60.0859 113.664C61.3203 114.789 63.1875 115.352 65.6875 115.352C68.0625 115.352 69.8984 114.789 71.1953 113.664C72.4922 112.523 73.1406 111.031 73.1406 109.188C73.1406 108.047 72.8438 107.047 72.25 106.188C71.6562 105.312 70.8125 104.531 69.7188 103.844C68.625 103.156 67.3359 102.531 65.8516 101.969L65.0078 101.664C63.5703 102.258 62.3438 102.922 61.3281 103.656C60.3281 104.375 59.5625 105.195 59.0312 106.117C58.5 107.039 58.2344 108.109 58.2344 109.328ZM65.6406 86.4297C63.7969 86.4297 62.2891 86.875 61.1172 87.7656C59.9453 88.6406 59.3594 89.9062 59.3594 91.5625C59.3594 92.75 59.6406 93.7578 60.2031 94.5859C60.7812 95.3984 61.5625 96.1016 62.5469 96.6953C63.5312 97.2734 64.6328 97.8125 65.8516 98.3125C67.0391 97.8125 68.0938 97.2656 69.0156 96.6719C69.9375 96.0625 70.6641 95.3438 71.1953 94.5156C71.7266 93.6875 71.9922 92.6953 71.9922 91.5391C71.9922 89.8828 71.4062 88.6172 70.2344 87.7422C69.0781 86.8672 67.5469 86.4297 65.6406 86.4297ZM104.477 100.82C104.477 103.602 104.266 106.086 103.844 108.273C103.422 110.461 102.758 112.312 101.852 113.828C100.945 115.344 99.7734 116.5 98.3359 117.297C96.8984 118.078 95.1719 118.469 93.1562 118.469C90.6094 118.469 88.5 117.773 86.8281 116.383C85.1719 114.992 83.9297 112.984 83.1016 110.359C82.2891 107.719 81.8828 104.539 81.8828 100.82C81.8828 97.1641 82.25 94.0234 82.9844 91.3984C83.7344 88.7578 84.9375 86.7344 86.5938 85.3281C88.25 83.9062 90.4375 83.1953 93.1562 83.1953C95.7344 83.1953 97.8594 83.8984 99.5312 85.3047C101.203 86.6953 102.445 88.7109 103.258 91.3516C104.07 93.9766 104.477 97.1328 104.477 100.82ZM85.7969 100.82C85.7969 104.008 86.0391 106.664 86.5234 108.789C87.0078 110.914 87.7891 112.508 88.8672 113.57C89.9609 114.617 91.3906 115.141 93.1562 115.141C94.9219 115.141 96.3438 114.617 97.4219 113.57C98.5156 112.523 99.3047 110.938 99.7891 108.812C100.289 106.688 100.539 104.023 100.539 100.82C100.539 97.6797 100.297 95.0547 99.8125 92.9453C99.3281 90.8203 98.5469 89.2266 97.4688 88.1641C96.3906 87.0859 94.9531 86.5469 93.1562 86.5469C91.3594 86.5469 89.9219 87.0859 88.8438 88.1641C87.7656 89.2266 86.9844 90.8203 86.5 92.9453C86.0312 95.0547 85.7969 97.6797 85.7969 100.82ZM116.289 83.2422C118.633 83.2422 120.406 84.1797 121.609 86.0547C122.828 87.9141 123.438 90.5469 123.438 93.9531C123.438 97.3594 122.852 100.016 121.68 101.922C120.508 103.812 118.711 104.758 116.289 104.758C114.039 104.758 112.312 103.812 111.109 101.922C109.922 100.016 109.328 97.3594 109.328 93.9531C109.328 90.5469 109.898 87.9141 111.039 86.0547C112.18 84.1797 113.93 83.2422 116.289 83.2422ZM116.289 86.0312C115.023 86.0312 114.094 86.6953 113.5 88.0234C112.906 89.3359 112.609 91.3125 112.609 93.9531C112.609 96.5938 112.906 98.5859 113.5 99.9297C114.094 101.273 115.023 101.945 116.289 101.945C117.602 101.945 118.578 101.273 119.219 99.9297C119.859 98.5859 120.18 96.5938 120.18 93.9531C120.18 91.3281 119.859 89.3516 119.219 88.0234C118.594 86.6953 117.617 86.0312 116.289 86.0312ZM137.992 83.7344L118.984 118H115.562L134.57 83.7344H137.992ZM137.078 96.9766C139.406 96.9766 141.18 97.9141 142.398 99.7891C143.617 101.648 144.227 104.281 144.227 107.688C144.227 111.078 143.641 113.727 142.469 115.633C141.297 117.523 139.5 118.469 137.078 118.469C134.812 118.469 133.086 117.523 131.898 115.633C130.711 113.727 130.117 111.078 130.117 107.688C130.117 104.281 130.68 101.648 131.805 99.7891C132.945 97.9141 134.703 96.9766 137.078 96.9766ZM137.078 99.7891C135.812 99.7891 134.883 100.445 134.289 101.758C133.695 103.07 133.398 105.047 133.398 107.688C133.398 110.328 133.695 112.32 134.289 113.664C134.883 114.992 135.812 115.656 137.078 115.656C138.391 115.656 139.367 115 140.008 113.688C140.648 112.359 140.969 110.359 140.969 107.688C140.969 105.062 140.648 103.094 140.008 101.781C139.383 100.453 138.406 99.7891 137.078 99.7891Z" fill="#D5D6D5"/>
</svg>
