<svg width="479" height="157" viewBox="0 0 479 157" fill="none" xmlns="http://www.w3.org/2000/svg">
<path d="M106.602 51.1875V25.1875H112.414V59H106.883L106.602 51.1875ZM107.695 44.0625L110.102 44C110.102 46.25 109.862 48.3333 109.383 50.25C108.924 52.1458 108.174 53.7917 107.133 55.1875C106.091 56.5833 104.727 57.6771 103.039 58.4688C101.352 59.2396 99.2995 59.625 96.8828 59.625C95.237 59.625 93.7266 59.3854 92.3516 58.9062C90.9974 58.4271 89.8307 57.6875 88.8516 56.6875C87.8724 55.6875 87.112 54.3854 86.5703 52.7812C86.0495 51.1771 85.7891 49.25 85.7891 47V25.1875H91.5703V47.0625C91.5703 48.5833 91.737 49.8438 92.0703 50.8438C92.4245 51.8229 92.8932 52.6042 93.4766 53.1875C94.0807 53.75 94.7474 54.1458 95.4766 54.375C96.2266 54.6042 96.9974 54.7188 97.7891 54.7188C100.247 54.7188 102.195 54.25 103.633 53.3125C105.07 52.3542 106.102 51.0729 106.727 49.4688C107.372 47.8438 107.695 46.0417 107.695 44.0625ZM135.383 25.1875V29.625H117.102V25.1875H135.383ZM123.289 16.9688H129.07V50.625C129.07 51.7708 129.247 52.6354 129.602 53.2188C129.956 53.8021 130.414 54.1875 130.977 54.375C131.539 54.5625 132.143 54.6562 132.789 54.6562C133.268 54.6562 133.768 54.6146 134.289 54.5312C134.831 54.4271 135.237 54.3438 135.508 54.2812L135.539 59C135.081 59.1458 134.477 59.2812 133.727 59.4062C132.997 59.5521 132.112 59.625 131.07 59.625C129.654 59.625 128.352 59.3438 127.164 58.7812C125.977 58.2188 125.029 57.2812 124.32 55.9688C123.633 54.6354 123.289 52.8438 123.289 50.5938V16.9688ZM140.008 42.4688V41.75C140.008 39.3125 140.362 37.0521 141.07 34.9688C141.779 32.8646 142.799 31.0417 144.133 29.5C145.466 27.9375 147.081 26.7292 148.977 25.875C150.872 25 152.997 24.5625 155.352 24.5625C157.727 24.5625 159.862 25 161.758 25.875C163.674 26.7292 165.299 27.9375 166.633 29.5C167.987 31.0417 169.018 32.8646 169.727 34.9688C170.435 37.0521 170.789 39.3125 170.789 41.75V42.4688C170.789 44.9062 170.435 47.1667 169.727 49.25C169.018 51.3333 167.987 53.1562 166.633 54.7188C165.299 56.2604 163.685 57.4688 161.789 58.3438C159.914 59.1979 157.789 59.625 155.414 59.625C153.039 59.625 150.904 59.1979 149.008 58.3438C147.112 57.4688 145.487 56.2604 144.133 54.7188C142.799 53.1562 141.779 51.3333 141.07 49.25C140.362 47.1667 140.008 44.9062 140.008 42.4688ZM145.789 41.75V42.4688C145.789 44.1562 145.987 45.75 146.383 47.25C146.779 48.7292 147.372 50.0417 148.164 51.1875C148.977 52.3333 149.987 53.2396 151.195 53.9062C152.404 54.5521 153.81 54.875 155.414 54.875C156.997 54.875 158.383 54.5521 159.57 53.9062C160.779 53.2396 161.779 52.3333 162.57 51.1875C163.362 50.0417 163.956 48.7292 164.352 47.25C164.768 45.75 164.977 44.1562 164.977 42.4688V41.75C164.977 40.0833 164.768 38.5104 164.352 37.0312C163.956 35.5312 163.352 34.2083 162.539 33.0625C161.747 31.8958 160.747 30.9792 159.539 30.3125C158.352 29.6458 156.956 29.3125 155.352 29.3125C153.768 29.3125 152.372 29.6458 151.164 30.3125C149.977 30.9792 148.977 31.8958 148.164 33.0625C147.372 34.2083 146.779 35.5312 146.383 37.0312C145.987 38.5104 145.789 40.0833 145.789 41.75ZM183.789 31.9062V59H177.977V25.1875H183.477L183.789 31.9062ZM182.602 40.8125L179.914 40.7188C179.935 38.4062 180.237 36.2708 180.82 34.3125C181.404 32.3333 182.268 30.6146 183.414 29.1562C184.56 27.6979 185.987 26.5729 187.695 25.7812C189.404 24.9688 191.383 24.5625 193.633 24.5625C195.216 24.5625 196.674 24.7917 198.008 25.25C199.341 25.6875 200.497 26.3854 201.477 27.3438C202.456 28.3021 203.216 29.5312 203.758 31.0312C204.299 32.5312 204.57 34.3438 204.57 36.4688V59H198.789V36.75C198.789 34.9792 198.487 33.5625 197.883 32.5C197.299 31.4375 196.466 30.6667 195.383 30.1875C194.299 29.6875 193.029 29.4375 191.57 29.4375C189.862 29.4375 188.435 29.7396 187.289 30.3438C186.143 30.9479 185.227 31.7812 184.539 32.8438C183.852 33.9062 183.352 35.125 183.039 36.5C182.747 37.8542 182.602 39.2917 182.602 40.8125ZM204.508 37.625L200.633 38.8125C200.654 36.9583 200.956 35.1771 201.539 33.4688C202.143 31.7604 203.008 30.2396 204.133 28.9062C205.279 27.5729 206.685 26.5208 208.352 25.75C210.018 24.9583 211.924 24.5625 214.07 24.5625C215.883 24.5625 217.487 24.8021 218.883 25.2812C220.299 25.7604 221.487 26.5 222.445 27.5C223.424 28.4792 224.164 29.7396 224.664 31.2812C225.164 32.8229 225.414 34.6562 225.414 36.7812V59H219.602V36.7188C219.602 34.8229 219.299 33.3542 218.695 32.3125C218.112 31.25 217.279 30.5104 216.195 30.0938C215.133 29.6562 213.862 29.4375 212.383 29.4375C211.112 29.4375 209.987 29.6562 209.008 30.0938C208.029 30.5312 207.206 31.1354 206.539 31.9062C205.872 32.6562 205.362 33.5208 205.008 34.5C204.674 35.4792 204.508 36.5208 204.508 37.625ZM254.102 53.2188V35.8125C254.102 34.4792 253.831 33.3229 253.289 32.3438C252.768 31.3438 251.977 30.5729 250.914 30.0312C249.852 29.4896 248.539 29.2188 246.977 29.2188C245.518 29.2188 244.237 29.4688 243.133 29.9688C242.049 30.4688 241.195 31.125 240.57 31.9375C239.966 32.75 239.664 33.625 239.664 34.5625H233.883C233.883 33.3542 234.195 32.1562 234.82 30.9688C235.445 29.7812 236.341 28.7083 237.508 27.75C238.695 26.7708 240.112 26 241.758 25.4375C243.424 24.8542 245.279 24.5625 247.32 24.5625C249.779 24.5625 251.945 24.9792 253.82 25.8125C255.716 26.6458 257.195 27.9062 258.258 29.5938C259.341 31.2604 259.883 33.3542 259.883 35.875V51.625C259.883 52.75 259.977 53.9479 260.164 55.2188C260.372 56.4896 260.674 57.5833 261.07 58.5V59H255.039C254.747 58.3333 254.518 57.4479 254.352 56.3438C254.185 55.2188 254.102 54.1771 254.102 53.2188ZM255.102 38.5L255.164 42.5625H249.32C247.674 42.5625 246.206 42.6979 244.914 42.9688C243.622 43.2188 242.539 43.6042 241.664 44.125C240.789 44.6458 240.122 45.3021 239.664 46.0938C239.206 46.8646 238.977 47.7708 238.977 48.8125C238.977 49.875 239.216 50.8438 239.695 51.7188C240.174 52.5938 240.893 53.2917 241.852 53.8125C242.831 54.3125 244.029 54.5625 245.445 54.5625C247.216 54.5625 248.779 54.1875 250.133 53.4375C251.487 52.6875 252.56 51.7708 253.352 50.6875C254.164 49.6042 254.602 48.5521 254.664 47.5312L257.133 50.3125C256.987 51.1875 256.591 52.1562 255.945 53.2188C255.299 54.2812 254.435 55.3021 253.352 56.2812C252.289 57.2396 251.018 58.0417 249.539 58.6875C248.081 59.3125 246.435 59.625 244.602 59.625C242.31 59.625 240.299 59.1771 238.57 58.2812C236.862 57.3854 235.529 56.1875 234.57 54.6875C233.633 53.1667 233.164 51.4688 233.164 49.5938C233.164 47.7812 233.518 46.1875 234.227 44.8125C234.935 43.4167 235.956 42.2604 237.289 41.3438C238.622 40.4062 240.227 39.6979 242.102 39.2188C243.977 38.7396 246.07 38.5 248.383 38.5H255.102ZM283.133 25.1875V29.625H264.852V25.1875H283.133ZM271.039 16.9688H276.82V50.625C276.82 51.7708 276.997 52.6354 277.352 53.2188C277.706 53.8021 278.164 54.1875 278.727 54.375C279.289 54.5625 279.893 54.6562 280.539 54.6562C281.018 54.6562 281.518 54.6146 282.039 54.5312C282.581 54.4271 282.987 54.3438 283.258 54.2812L283.289 59C282.831 59.1458 282.227 59.2812 281.477 59.4062C280.747 59.5521 279.862 59.625 278.82 59.625C277.404 59.625 276.102 59.3438 274.914 58.7812C273.727 58.2188 272.779 57.2812 272.07 55.9688C271.383 54.6354 271.039 52.8438 271.039 50.5938V16.9688ZM296.195 25.1875V59H290.383V25.1875H296.195ZM289.945 16.2188C289.945 15.2812 290.227 14.4896 290.789 13.8438C291.372 13.1979 292.227 12.875 293.352 12.875C294.456 12.875 295.299 13.1979 295.883 13.8438C296.487 14.4896 296.789 15.2812 296.789 16.2188C296.789 17.1146 296.487 17.8854 295.883 18.5312C295.299 19.1562 294.456 19.4688 293.352 19.4688C292.227 19.4688 291.372 19.1562 290.789 18.5312C290.227 17.8854 289.945 17.1146 289.945 16.2188ZM319.008 54.875C320.383 54.875 321.654 54.5938 322.82 54.0312C323.987 53.4688 324.945 52.6979 325.695 51.7188C326.445 50.7188 326.872 49.5833 326.977 48.3125H332.477C332.372 50.3125 331.695 52.1771 330.445 53.9062C329.216 55.6146 327.602 57 325.602 58.0625C323.602 59.1042 321.404 59.625 319.008 59.625C316.466 59.625 314.247 59.1771 312.352 58.2812C310.477 57.3854 308.914 56.1562 307.664 54.5938C306.435 53.0312 305.508 51.2396 304.883 49.2188C304.279 47.1771 303.977 45.0208 303.977 42.75V41.4375C303.977 39.1667 304.279 37.0208 304.883 35C305.508 32.9583 306.435 31.1562 307.664 29.5938C308.914 28.0312 310.477 26.8021 312.352 25.9062C314.247 25.0104 316.466 24.5625 319.008 24.5625C321.654 24.5625 323.966 25.1042 325.945 26.1875C327.924 27.25 329.477 28.7083 330.602 30.5625C331.747 32.3958 332.372 34.4792 332.477 36.8125H326.977C326.872 35.4167 326.477 34.1562 325.789 33.0312C325.122 31.9062 324.206 31.0104 323.039 30.3438C321.893 29.6562 320.549 29.3125 319.008 29.3125C317.237 29.3125 315.747 29.6667 314.539 30.375C313.352 31.0625 312.404 32 311.695 33.1875C311.008 34.3542 310.508 35.6562 310.195 37.0938C309.904 38.5104 309.758 39.9583 309.758 41.4375V42.75C309.758 44.2292 309.904 45.6875 310.195 47.125C310.487 48.5625 310.977 49.8646 311.664 51.0312C312.372 52.1979 313.32 53.1354 314.508 53.8438C315.716 54.5312 317.216 54.875 319.008 54.875Z" fill="black"/>
<path d="M123.055 94.6172H113.938V90.9375H123.055C124.82 90.9375 126.25 90.6562 127.344 90.0938C128.438 89.5312 129.234 88.75 129.734 87.75C130.25 86.75 130.508 85.6094 130.508 84.3281C130.508 83.1562 130.25 82.0547 129.734 81.0234C129.234 79.9922 128.438 79.1641 127.344 78.5391C126.25 77.8984 124.82 77.5781 123.055 77.5781H114.992V108H110.469V73.875H123.055C125.633 73.875 127.812 74.3203 129.594 75.2109C131.375 76.1016 132.727 77.3359 133.648 78.9141C134.57 80.4766 135.031 82.2656 135.031 84.2812C135.031 86.4688 134.57 88.3359 133.648 89.8828C132.727 91.4297 131.375 92.6094 129.594 93.4219C127.812 94.2188 125.633 94.6172 123.055 94.6172ZM154.766 103.664V90.6094C154.766 89.6094 154.562 88.7422 154.156 88.0078C153.766 87.2578 153.172 86.6797 152.375 86.2734C151.578 85.8672 150.594 85.6641 149.422 85.6641C148.328 85.6641 147.367 85.8516 146.539 86.2266C145.727 86.6016 145.086 87.0938 144.617 87.7031C144.164 88.3125 143.938 88.9688 143.938 89.6719H139.602C139.602 88.7656 139.836 87.8672 140.305 86.9766C140.773 86.0859 141.445 85.2812 142.32 84.5625C143.211 83.8281 144.273 83.25 145.508 82.8281C146.758 82.3906 148.148 82.1719 149.68 82.1719C151.523 82.1719 153.148 82.4844 154.555 83.1094C155.977 83.7344 157.086 84.6797 157.883 85.9453C158.695 87.1953 159.102 88.7656 159.102 90.6562V102.469C159.102 103.312 159.172 104.211 159.312 105.164C159.469 106.117 159.695 106.938 159.992 107.625V108H155.469C155.25 107.5 155.078 106.836 154.953 106.008C154.828 105.164 154.766 104.383 154.766 103.664ZM155.516 92.625L155.562 95.6719H151.18C149.945 95.6719 148.844 95.7734 147.875 95.9766C146.906 96.1641 146.094 96.4531 145.438 96.8438C144.781 97.2344 144.281 97.7266 143.938 98.3203C143.594 98.8984 143.422 99.5781 143.422 100.359C143.422 101.156 143.602 101.883 143.961 102.539C144.32 103.195 144.859 103.719 145.578 104.109C146.312 104.484 147.211 104.672 148.273 104.672C149.602 104.672 150.773 104.391 151.789 103.828C152.805 103.266 153.609 102.578 154.203 101.766C154.812 100.953 155.141 100.164 155.188 99.3984L157.039 101.484C156.93 102.141 156.633 102.867 156.148 103.664C155.664 104.461 155.016 105.227 154.203 105.961C153.406 106.68 152.453 107.281 151.344 107.766C150.25 108.234 149.016 108.469 147.641 108.469C145.922 108.469 144.414 108.133 143.117 107.461C141.836 106.789 140.836 105.891 140.117 104.766C139.414 103.625 139.062 102.352 139.062 100.945C139.062 99.5859 139.328 98.3906 139.859 97.3594C140.391 96.3125 141.156 95.4453 142.156 94.7578C143.156 94.0547 144.359 93.5234 145.766 93.1641C147.172 92.8047 148.742 92.625 150.477 92.625H155.516ZM170.258 86.625V108H165.922V82.6406H170.141L170.258 86.625ZM178.18 82.5L178.156 86.5312C177.797 86.4531 177.453 86.4062 177.125 86.3906C176.812 86.3594 176.453 86.3438 176.047 86.3438C175.047 86.3438 174.164 86.5 173.398 86.8125C172.633 87.125 171.984 87.5625 171.453 88.125C170.922 88.6875 170.5 89.3594 170.188 90.1406C169.891 90.9062 169.695 91.75 169.602 92.6719L168.383 93.375C168.383 91.8438 168.531 90.4062 168.828 89.0625C169.141 87.7188 169.617 86.5312 170.258 85.5C170.898 84.4531 171.711 83.6406 172.695 83.0625C173.695 82.4688 174.883 82.1719 176.258 82.1719C176.57 82.1719 176.93 82.2109 177.336 82.2891C177.742 82.3516 178.023 82.4219 178.18 82.5ZM186.547 72V108H182.188V72H186.547ZM202.039 82.6406L190.977 94.4766L184.789 100.898L184.438 96.2812L188.867 90.9844L196.742 82.6406H202.039ZM198.078 108L189.031 95.9062L191.281 92.0391L203.188 108H198.078ZM211.227 82.6406V108H206.867V82.6406H211.227ZM206.539 75.9141C206.539 75.2109 206.75 74.6172 207.172 74.1328C207.609 73.6484 208.25 73.4062 209.094 73.4062C209.922 73.4062 210.555 73.6484 210.992 74.1328C211.445 74.6172 211.672 75.2109 211.672 75.9141C211.672 76.5859 211.445 77.1641 210.992 77.6484C210.555 78.1172 209.922 78.3516 209.094 78.3516C208.25 78.3516 207.609 78.1172 207.172 77.6484C206.75 77.1641 206.539 76.5859 206.539 75.9141ZM222.523 88.0547V108H218.188V82.6406H222.289L222.523 88.0547ZM221.492 94.3594L219.688 94.2891C219.703 92.5547 219.961 90.9531 220.461 89.4844C220.961 88 221.664 86.7109 222.57 85.6172C223.477 84.5234 224.555 83.6797 225.805 83.0859C227.07 82.4766 228.469 82.1719 230 82.1719C231.25 82.1719 232.375 82.3438 233.375 82.6875C234.375 83.0156 235.227 83.5469 235.93 84.2812C236.648 85.0156 237.195 85.9688 237.57 87.1406C237.945 88.2969 238.133 89.7109 238.133 91.3828V108H233.773V91.3359C233.773 90.0078 233.578 88.9453 233.188 88.1484C232.797 87.3359 232.227 86.75 231.477 86.3906C230.727 86.0156 229.805 85.8281 228.711 85.8281C227.633 85.8281 226.648 86.0547 225.758 86.5078C224.883 86.9609 224.125 87.5859 223.484 88.3828C222.859 89.1797 222.367 90.0938 222.008 91.125C221.664 92.1406 221.492 93.2188 221.492 94.3594ZM261.148 82.6406H265.086V107.461C265.086 109.695 264.633 111.602 263.727 113.18C262.82 114.758 261.555 115.953 259.93 116.766C258.32 117.594 256.461 118.008 254.352 118.008C253.477 118.008 252.445 117.867 251.258 117.586C250.086 117.32 248.93 116.859 247.789 116.203C246.664 115.562 245.719 114.695 244.953 113.602L247.227 111.023C248.289 112.305 249.398 113.195 250.555 113.695C251.727 114.195 252.883 114.445 254.023 114.445C255.398 114.445 256.586 114.188 257.586 113.672C258.586 113.156 259.359 112.391 259.906 111.375C260.469 110.375 260.75 109.141 260.75 107.672V88.2188L261.148 82.6406ZM243.688 95.6016V95.1094C243.688 93.1719 243.914 91.4141 244.367 89.8359C244.836 88.2422 245.5 86.875 246.359 85.7344C247.234 84.5938 248.289 83.7188 249.523 83.1094C250.758 82.4844 252.148 82.1719 253.695 82.1719C255.289 82.1719 256.68 82.4531 257.867 83.0156C259.07 83.5625 260.086 84.3672 260.914 85.4297C261.758 86.4766 262.422 87.7422 262.906 89.2266C263.391 90.7109 263.727 92.3906 263.914 94.2656V96.4219C263.742 98.2812 263.406 99.9531 262.906 101.438C262.422 102.922 261.758 104.188 260.914 105.234C260.086 106.281 259.07 107.086 257.867 107.648C256.664 108.195 255.258 108.469 253.648 108.469C252.133 108.469 250.758 108.148 249.523 107.508C248.305 106.867 247.258 105.969 246.383 104.812C245.508 103.656 244.836 102.297 244.367 100.734C243.914 99.1562 243.688 97.4453 243.688 95.6016ZM248.023 95.1094V95.6016C248.023 96.8672 248.148 98.0547 248.398 99.1641C248.664 100.273 249.062 101.25 249.594 102.094C250.141 102.938 250.836 103.602 251.68 104.086C252.523 104.555 253.531 104.789 254.703 104.789C256.141 104.789 257.328 104.484 258.266 103.875C259.203 103.266 259.945 102.461 260.492 101.461C261.055 100.461 261.492 99.375 261.805 98.2031V92.5547C261.633 91.6953 261.367 90.8672 261.008 90.0703C260.664 89.2578 260.211 88.5391 259.648 87.9141C259.102 87.2734 258.422 86.7656 257.609 86.3906C256.797 86.0156 255.844 85.8281 254.75 85.8281C253.562 85.8281 252.539 86.0781 251.68 86.5781C250.836 87.0625 250.141 87.7344 249.594 88.5938C249.062 89.4375 248.664 90.4219 248.398 91.5469C248.148 92.6562 248.023 93.8438 248.023 95.1094ZM288.289 72V108H283.93V72H288.289ZM294.102 95.6016V95.0625C294.102 93.2344 294.367 91.5391 294.898 89.9766C295.43 88.3984 296.195 87.0312 297.195 85.875C298.195 84.7031 299.406 83.7969 300.828 83.1562C302.25 82.5 303.844 82.1719 305.609 82.1719C307.391 82.1719 308.992 82.5 310.414 83.1562C311.852 83.7969 313.07 84.7031 314.07 85.875C315.086 87.0312 315.859 88.3984 316.391 89.9766C316.922 91.5391 317.188 93.2344 317.188 95.0625V95.6016C317.188 97.4297 316.922 99.125 316.391 100.688C315.859 102.25 315.086 103.617 314.07 104.789C313.07 105.945 311.859 106.852 310.438 107.508C309.031 108.148 307.438 108.469 305.656 108.469C303.875 108.469 302.273 108.148 300.852 107.508C299.43 106.852 298.211 105.945 297.195 104.789C296.195 103.617 295.43 102.25 294.898 100.688C294.367 99.125 294.102 97.4297 294.102 95.6016ZM298.438 95.0625V95.6016C298.438 96.8672 298.586 98.0625 298.883 99.1875C299.18 100.297 299.625 101.281 300.219 102.141C300.828 103 301.586 103.68 302.492 104.18C303.398 104.664 304.453 104.906 305.656 104.906C306.844 104.906 307.883 104.664 308.773 104.18C309.68 103.68 310.43 103 311.023 102.141C311.617 101.281 312.062 100.297 312.359 99.1875C312.672 98.0625 312.828 96.8672 312.828 95.6016V95.0625C312.828 93.8125 312.672 92.6328 312.359 91.5234C312.062 90.3984 311.609 89.4062 311 88.5469C310.406 87.6719 309.656 86.9844 308.75 86.4844C307.859 85.9844 306.812 85.7344 305.609 85.7344C304.422 85.7344 303.375 85.9844 302.469 86.4844C301.578 86.9844 300.828 87.6719 300.219 88.5469C299.625 89.4062 299.18 90.3984 298.883 91.5234C298.586 92.6328 298.438 93.8125 298.438 95.0625ZM333.242 82.6406V85.9688H319.531V82.6406H333.242ZM324.172 76.4766H328.508V101.719C328.508 102.578 328.641 103.227 328.906 103.664C329.172 104.102 329.516 104.391 329.938 104.531C330.359 104.672 330.812 104.742 331.297 104.742C331.656 104.742 332.031 104.711 332.422 104.648C332.828 104.57 333.133 104.508 333.336 104.461L333.359 108C333.016 108.109 332.562 108.211 332 108.305C331.453 108.414 330.789 108.469 330.008 108.469C328.945 108.469 327.969 108.258 327.078 107.836C326.188 107.414 325.477 106.711 324.945 105.727C324.43 104.727 324.172 103.383 324.172 101.695V76.4766Z" fill="black"/>
<path d="M50.2734 25.1328L22.4297 110H0L38.0391 7.625H52.3125L50.2734 25.1328ZM73.4062 110L45.4922 25.1328L43.2422 7.625H57.6562L95.9062 110H73.4062ZM67.5078 52L71.0078 74.5C71.0078 74.5 57.7088 74.9333 50.2734 78.5C44.6705 81.1877 42.0001 83.7063 37.5078 88C29.9782 95.1967 22.4297 110 22.4297 110L20.0078 84C36.9365 64.7117 47.2256 57.2397 67.5078 52Z" fill="black"/>
</svg>
