<svg width="29" height="29" viewBox="0 0 29 29" fill="none" xmlns="http://www.w3.org/2000/svg">
<g clip-path="url(#clip0_2_548)">
<path d="M1.07164 19.8923L7.21714 17.2574C7.94101 16.9441 8.79005 17.1553 9.28169 17.766L11.779 20.8144C15.7013 18.8886 18.8874 15.6992 20.8132 11.7802L17.7653 9.28575C17.1564 8.78839 16.9491 7.94393 17.257 7.22007L19.8914 1.07456C20.2366 0.286688 21.0865 -0.144347 21.9186 0.0487972L27.6279 1.36569C28.4351 1.54977 28.9998 2.26061 28.9998 3.09097C28.9998 17.3814 17.3771 29.0041 3.08668 29.0041C2.25577 29.0041 1.54719 28.4395 1.36198 27.6322L0.0450826 21.9228C-0.145626 21.0931 0.284219 20.2321 1.07164 19.8923Z" fill="white"/>
</g>
<defs>
<clipPath id="clip0_2_548">
<rect width="29" height="29" fill="white"/>
</clipPath>
</defs>
</svg>
