<svg width="197" height="221" viewBox="0 0 197 221" fill="none" xmlns="http://www.w3.org/2000/svg">
<path d="M99.1127 211.478C116.709 211.478 133.91 206.229 148.541 196.395C163.171 186.56 174.575 172.582 181.309 156.227C188.042 139.873 189.804 121.877 186.371 104.515C182.938 87.1538 174.465 71.2061 162.023 58.689C149.58 46.1719 133.728 37.6477 116.47 34.1943C99.2114 30.7408 81.3229 32.5133 65.0661 39.2874C48.8093 46.0616 34.9144 57.5333 25.1384 72.2518C15.3625 86.9703 10.1446 104.275 10.1446 121.976C10.1446 145.714 19.518 168.479 36.2027 185.264C52.8875 202.049 75.5169 211.478 99.1127 211.478ZM197 121.976C197 141.489 191.247 160.563 180.467 176.786C169.688 193.008 154.368 205.649 136.445 213.109C118.523 220.569 98.8029 222.514 79.7815 218.696C60.76 214.878 43.2917 205.47 29.5869 191.662C15.8822 177.854 6.55683 160.266 2.79098 141.125C-0.974868 121.983 0.987993 102.148 8.4312 84.1295C15.8744 66.1106 28.4634 50.7179 44.6053 39.8989C60.7472 29.08 79.7164 23.321 99.1127 23.3509C125.088 23.3908 149.986 33.7994 168.339 52.2909C186.692 70.7825 197 95.8454 197 121.976Z" fill="#D5D6D5"/>
<path d="M100.659 46.2725L101.482 0.827271C126.925 1.27496 151.575 9.86568 171.897 25.3677L144.734 61.5724C132.027 51.9239 116.617 46.6185 100.734 46.424" fill="#6DC9CA"/>
<path d="M65.8516 137H62.0547V112.719C62.0547 111.797 62.0547 111.008 62.0547 110.352C62.0703 109.68 62.0859 109.07 62.1016 108.523C62.1328 107.961 62.1719 107.391 62.2188 106.812C61.7344 107.312 61.2812 107.742 60.8594 108.102C60.4375 108.445 59.9141 108.875 59.2891 109.391L55.375 112.531L53.3359 109.883L62.6172 102.734H65.8516V137ZM89.6641 116.047C91.9922 116.047 94.0156 116.445 95.7344 117.242C97.4531 118.023 98.7812 119.164 99.7188 120.664C100.672 122.164 101.148 123.984 101.148 126.125C101.148 128.469 100.641 130.492 99.625 132.195C98.6094 133.883 97.1484 135.188 95.2422 136.109C93.3359 137.016 91.0547 137.469 88.3984 137.469C86.6172 137.469 84.9609 137.312 83.4297 137C81.8984 136.688 80.6094 136.219 79.5625 135.594V131.891C80.7031 132.578 82.0859 133.125 83.7109 133.531C85.3359 133.938 86.9141 134.141 88.4453 134.141C90.1797 134.141 91.6953 133.867 92.9922 133.32C94.3047 132.758 95.3203 131.914 96.0391 130.789C96.7734 129.648 97.1406 128.219 97.1406 126.5C97.1406 124.219 96.4375 122.461 95.0312 121.227C93.6406 119.977 91.4375 119.352 88.4219 119.352C87.4531 119.352 86.3906 119.43 85.2344 119.586C84.0781 119.742 83.125 119.914 82.375 120.102L80.4062 118.812L81.7188 102.734H98.7578V106.297H85.0469L84.1797 116.633C84.7734 116.508 85.5391 116.383 86.4766 116.258C87.4141 116.117 88.4766 116.047 89.6641 116.047ZM113.289 102.242C115.633 102.242 117.406 103.18 118.609 105.055C119.828 106.914 120.438 109.547 120.438 112.953C120.438 116.359 119.852 119.016 118.68 120.922C117.508 122.812 115.711 123.758 113.289 123.758C111.039 123.758 109.312 122.812 108.109 120.922C106.922 119.016 106.328 116.359 106.328 112.953C106.328 109.547 106.898 106.914 108.039 105.055C109.18 103.18 110.93 102.242 113.289 102.242ZM113.289 105.031C112.023 105.031 111.094 105.695 110.5 107.023C109.906 108.336 109.609 110.312 109.609 112.953C109.609 115.594 109.906 117.586 110.5 118.93C111.094 120.273 112.023 120.945 113.289 120.945C114.602 120.945 115.578 120.273 116.219 118.93C116.859 117.586 117.18 115.594 117.18 112.953C117.18 110.328 116.859 108.352 116.219 107.023C115.594 105.695 114.617 105.031 113.289 105.031ZM134.992 102.734L115.984 137H112.562L131.57 102.734H134.992ZM134.078 115.977C136.406 115.977 138.18 116.914 139.398 118.789C140.617 120.648 141.227 123.281 141.227 126.688C141.227 130.078 140.641 132.727 139.469 134.633C138.297 136.523 136.5 137.469 134.078 137.469C131.812 137.469 130.086 136.523 128.898 134.633C127.711 132.727 127.117 130.078 127.117 126.688C127.117 123.281 127.68 120.648 128.805 118.789C129.945 116.914 131.703 115.977 134.078 115.977ZM134.078 118.789C132.812 118.789 131.883 119.445 131.289 120.758C130.695 122.07 130.398 124.047 130.398 126.688C130.398 129.328 130.695 131.32 131.289 132.664C131.883 133.992 132.812 134.656 134.078 134.656C135.391 134.656 136.367 134 137.008 132.688C137.648 131.359 137.969 129.359 137.969 126.688C137.969 124.062 137.648 122.094 137.008 120.781C136.383 119.453 135.406 118.789 134.078 118.789Z" fill="#D5D6D5"/>
</svg>
