<svg width="165" height="299" viewBox="0 0 165 299" fill="none" xmlns="http://www.w3.org/2000/svg">
<rect x="75.2648" y="154.038" width="13.4033" height="144.343" fill="url(#paint0_linear_2_569)"/>
<rect x="0.707107" y="82.3821" width="115.506" height="115.506" transform="rotate(-45 0.707107 82.3821)" fill="#E2D900" stroke="black"/>
<rect x="14.9092" y="83.9286" width="96.1501" height="96.1501" transform="rotate(-45 14.9092 83.9286)" fill="#E2D900" stroke="black" stroke-width="3"/>
<path d="M87.8372 93.8028H74.4662V83.793H87.8372C89.6594 83.793 91.1369 83.4852 92.2696 82.8696C93.4023 82.254 94.2272 81.4044 94.7444 80.321C95.2861 79.2129 95.557 77.9693 95.557 76.5904C95.557 75.1129 95.2861 73.7463 94.7444 72.4904C94.2272 71.2346 93.4023 70.225 92.2696 69.4616C91.1369 68.6736 89.6594 68.2796 87.8372 68.2796H79.3418V112.049H66.3771V58.2698H87.8372C92.1465 58.2698 95.8525 59.0578 98.9551 60.6338C102.082 62.2097 104.483 64.3767 106.158 67.1346C107.832 69.8679 108.669 72.9952 108.669 76.5165C108.669 79.9885 107.832 83.0173 106.158 85.6029C104.483 88.1884 102.082 90.2076 98.9551 91.6605C95.8525 93.0887 92.1465 93.8028 87.8372 93.8028Z" fill="black"/>
<defs>
<linearGradient id="paint0_linear_2_569" x1="81.9664" y1="154.038" x2="81.9664" y2="298.382" gradientUnits="userSpaceOnUse">
<stop stop-color="white"/>
<stop offset="1" stop-color="white" stop-opacity="0"/>
</linearGradient>
</defs>
</svg>
